<svg width="896" height="212" viewBox="0 0 896 212" fill="none" xmlns="http://www.w3.org/2000/svg">
<path d="M194.216 106.26C194.216 57.6826 154.837 18.303 106.26 18.303" stroke="#8843FD" stroke-width="35.0866" stroke-linecap="round"/>
<path d="M106.26 18.303C57.6831 18.303 18.3035 57.6826 18.3035 106.26" stroke="#6122E9" stroke-width="35.0866" stroke-linecap="round"/>
<path d="M18.3027 106.26C18.3027 154.837 57.6823 194.217 106.26 194.217" stroke="#0C44CF" stroke-width="35.0866" stroke-linecap="round"/>
<path d="M106.26 194.217C154.838 194.217 194.217 154.837 194.217 106.26" stroke="#064B4F" stroke-width="35.0866" stroke-linecap="round"/>
<path d="M105.779 106.26H194.217" stroke="#B32ED5" stroke-width="35.0866" stroke-linecap="round"/>
<circle cx="106.501" cy="18.5433" r="17.5433" fill="#8773FD"/>
<circle cx="18.5433" cy="106.5" r="17.5433" fill="#3671DE"/>
<circle cx="106.019" cy="194.457" r="17.5433" fill="#06738A"/>
<circle cx="194.457" cy="106.5" r="17.5433" fill="#B66BFF"/>
<circle cx="106.019" cy="106.5" r="17.5433" fill="#DC75FC"/>
<path d="M286.594 157.764C281.829 157.764 277.598 156.97 273.902 155.382C270.239 153.761 267.337 151.329 265.198 148.087C263.09 144.813 262.037 140.712 262.037 135.784C262.037 131.635 262.766 128.133 264.225 125.281C265.684 122.428 267.694 120.11 270.255 118.327C272.816 116.544 275.766 115.198 279.105 114.29C282.444 113.35 286.011 112.718 289.804 112.394C294.051 112.005 297.471 111.6 300.064 111.178C302.658 110.724 304.538 110.092 305.705 109.282C306.905 108.439 307.504 107.256 307.504 105.732V105.489C307.504 102.992 306.645 101.063 304.927 99.7019C303.209 98.3403 300.891 97.6595 297.973 97.6595C294.829 97.6595 292.3 98.3403 290.387 99.7019C288.474 101.063 287.259 102.944 286.74 105.343L264.809 104.565C265.457 100.026 267.126 95.9737 269.817 92.4076C272.54 88.8091 276.269 85.9886 281.002 83.9462C285.767 81.8714 291.489 80.834 298.168 80.834C302.933 80.834 307.326 81.4013 311.346 82.536C315.366 83.6382 318.867 85.2592 321.85 87.3988C324.832 89.5061 327.134 92.0996 328.755 95.1794C330.409 98.2592 331.235 101.777 331.235 105.732V156.5H308.866V146.094H308.283C306.953 148.622 305.251 150.762 303.177 152.513C301.134 154.263 298.719 155.576 295.931 156.452C293.175 157.327 290.063 157.764 286.594 157.764ZM293.937 142.203C296.498 142.203 298.8 141.685 300.842 140.647C302.917 139.61 304.571 138.183 305.802 136.368C307.034 134.52 307.65 132.38 307.65 129.949V122.849C306.97 123.206 306.143 123.53 305.17 123.822C304.23 124.113 303.193 124.389 302.058 124.648C300.923 124.908 299.756 125.135 298.557 125.329C297.357 125.524 296.206 125.702 295.104 125.864C292.867 126.221 290.955 126.772 289.366 127.517C287.81 128.263 286.61 129.236 285.767 130.435C284.957 131.602 284.552 132.996 284.552 134.617C284.552 137.081 285.427 138.961 287.178 140.258C288.961 141.555 291.214 142.203 293.937 142.203ZM410.986 104.613L389.152 105.197C388.925 103.641 388.309 102.263 387.304 101.063C386.299 99.8316 384.986 98.8752 383.365 98.1944C381.777 97.4812 379.929 97.1246 377.822 97.1246C375.066 97.1246 372.715 97.6757 370.77 98.7779C368.858 99.8802 367.917 101.371 367.95 103.252C367.917 104.711 368.501 105.975 369.701 107.045C370.932 108.115 373.121 108.974 376.265 109.622L390.659 112.345C398.116 113.772 403.66 116.138 407.29 119.445C410.954 122.752 412.802 127.128 412.834 132.575C412.802 137.697 411.278 142.155 408.263 145.948C405.28 149.741 401.196 152.691 396.009 154.798C390.822 156.873 384.889 157.91 378.211 157.91C367.545 157.91 359.132 155.722 352.972 151.346C346.845 146.937 343.344 141.036 342.468 133.645L365.956 133.061C366.475 135.784 367.82 137.859 369.992 139.286C372.164 140.712 374.936 141.425 378.308 141.425C381.355 141.425 383.835 140.858 385.748 139.723C387.661 138.589 388.633 137.081 388.666 135.201C388.633 133.515 387.888 132.17 386.429 131.165C384.97 130.127 382.684 129.317 379.572 128.733L366.54 126.253C359.051 124.892 353.475 122.379 349.811 118.716C346.148 115.02 344.333 110.319 344.365 104.613C344.333 99.6208 345.662 95.3577 348.353 91.824C351.043 88.2579 354.869 85.5347 359.829 83.6544C364.789 81.7741 370.641 80.834 377.384 80.834C387.499 80.834 395.474 82.9574 401.309 87.2043C407.145 91.4188 410.37 97.2218 410.986 104.613ZM445.987 136.903L446.084 108.552H449.391L470.398 81.8065H497.339L466.119 120.126H459.846L445.987 136.903ZM424.542 156.5V56.9087H448.321V156.5H424.542ZM470.933 156.5L451.385 125.475L467.043 108.601L498.408 156.5H470.933Z" fill="url(#paint0_linear_4_14)"/>
<path d="M572.081 156.5H535.269V56.9087H572.032C582.179 56.9087 590.916 58.9024 598.243 62.89C605.602 66.8451 611.276 72.5509 615.263 80.0073C619.251 87.4312 621.244 96.3141 621.244 106.656C621.244 117.03 619.251 125.945 615.263 133.402C611.308 140.858 605.651 146.58 598.292 150.567C590.933 154.523 582.196 156.5 572.081 156.5ZM559.34 135.979H571.157C576.733 135.979 581.45 135.039 585.308 133.158C589.198 131.246 592.132 128.15 594.11 123.87C596.12 119.559 597.125 113.82 597.125 106.656C597.125 99.4912 596.12 93.7854 594.11 89.5385C592.1 85.2592 589.133 82.1793 585.211 80.299C581.32 78.3863 576.522 77.4299 570.817 77.4299H559.34V135.979ZM670.165 157.91C662.319 157.91 655.576 156.306 649.935 153.096C644.327 149.854 639.999 145.348 636.951 139.577C633.936 133.774 632.429 127.047 632.429 119.396C632.429 111.713 633.936 104.986 636.951 99.2156C639.999 93.4126 644.327 88.9063 649.935 85.6968C655.576 82.4549 662.319 80.834 670.165 80.834C678.01 80.834 684.737 82.4549 690.346 85.6968C695.987 88.9063 700.315 93.4126 703.33 99.2156C706.377 104.986 707.901 111.713 707.901 119.396C707.901 127.047 706.377 133.774 703.33 139.577C700.315 145.348 695.987 149.854 690.346 153.096C684.737 156.306 678.01 157.91 670.165 157.91ZM670.311 139.966C673.164 139.966 675.579 139.091 677.556 137.34C679.534 135.59 681.041 133.158 682.079 130.046C683.149 126.934 683.684 123.335 683.684 119.251C683.684 115.101 683.149 111.47 682.079 108.358C681.041 105.246 679.534 102.814 677.556 101.063C675.579 99.3128 673.164 98.4375 670.311 98.4375C667.361 98.4375 664.864 99.3128 662.822 101.063C660.812 102.814 659.272 105.246 658.202 108.358C657.165 111.47 656.646 115.101 656.646 119.251C656.646 123.335 657.165 126.934 658.202 130.046C659.272 133.158 660.812 135.59 662.822 137.34C664.864 139.091 667.361 139.966 670.311 139.966ZM720.082 156.5V81.8065H743.181V95.4226H743.959C745.32 90.4948 747.541 86.8315 750.621 84.4325C753.701 82.001 757.283 80.7853 761.368 80.7853C762.47 80.7853 763.605 80.8664 764.772 81.0285C765.939 81.1581 767.025 81.3689 768.03 81.6606V102.328C766.895 101.939 765.404 101.631 763.556 101.404C761.741 101.177 760.12 101.063 758.693 101.063C755.873 101.063 753.328 101.696 751.059 102.96C748.822 104.192 747.055 105.926 745.758 108.163C744.494 110.368 743.862 112.961 743.862 115.944V156.5H720.082ZM777.719 156.5V81.8065H801.499V156.5H777.719ZM789.633 73.102C786.294 73.102 783.425 71.9998 781.026 69.7952C778.627 67.5583 777.428 64.8675 777.428 61.7229C777.428 58.6107 778.627 55.9523 781.026 53.7478C783.425 51.5109 786.294 50.3924 789.633 50.3924C793.005 50.3924 795.874 51.5109 798.241 53.7478C800.64 55.9523 801.839 58.6107 801.839 61.7229C801.839 64.8675 800.64 67.5583 798.241 69.7952C795.874 71.9998 793.005 73.102 789.633 73.102ZM840.414 113.901V156.5H816.634V81.8065H839.247V95.5198H840.073C841.727 90.9487 844.547 87.3664 848.535 84.7729C852.522 82.1469 857.272 80.834 862.783 80.834C868.035 80.834 872.59 82.0173 876.448 84.3838C880.338 86.718 883.353 89.9924 885.493 94.2068C887.665 98.3889 888.734 103.284 888.702 108.893V156.5H864.923V113.561C864.955 109.411 863.901 106.169 861.762 103.835C859.655 101.501 856.721 100.334 852.96 100.334C850.464 100.334 848.259 100.885 846.346 101.987C844.466 103.057 843.007 104.597 841.97 106.607C840.965 108.617 840.446 111.049 840.414 113.901Z" fill="url(#paint1_linear_4_14)"/>
<defs>
<linearGradient id="paint0_linear_4_14" x1="577" y1="23.5002" x2="576.381" y2="336.5" gradientUnits="userSpaceOnUse">
<stop stop-color="#0F0F0F"/>
<stop offset="1" stop-opacity="0"/>
</linearGradient>
<linearGradient id="paint1_linear_4_14" x1="533.246" y1="90.5002" x2="1042.01" y2="95.8531" gradientUnits="userSpaceOnUse">
<stop stop-color="#7928CA"/>
<stop offset="1" stop-color="#FF0080"/>
</linearGradient>
</defs>
</svg>
